<svg id="图层_1" data-name="图层 1" xmlns="http://www.w3.org/2000/svg" xmlns:xlink="http://www.w3.org/1999/xlink" viewBox="0 0 575.5 489.44"><defs><style>.cls-1{fill:#2c298b;}.cls-2{fill:url(#未命名的渐变_20);}.cls-3{fill:url(#未命名的渐变_20-2);}.cls-4{fill:url(#未命名的渐变_20-3);}.cls-5{fill:url(#未命名的渐变_20-4);}.cls-6{fill:url(#未命名的渐变_24);}.cls-7{fill:url(#未命名的渐变_24-2);}.cls-8{fill:url(#未命名的渐变_24-3);}.cls-9{fill:url(#未命名的渐变_24-4);}</style><linearGradient id="未命名的渐变_20" x1="637.39" y1="849.34" x2="1397.8" y2="303.61" gradientUnits="userSpaceOnUse"><stop offset="0.09" stop-color="#2c298b"/><stop offset="0.51" stop-color="#00afea"/><stop offset="1" stop-color="#87ba52"/></linearGradient><linearGradient id="未命名的渐变_20-2" x1="597.58" y1="793.88" x2="1358" y2="248.15" xlink:href="#未命名的渐变_20"/><linearGradient id="未命名的渐变_20-3" x1="501.31" y1="659.74" x2="1261.73" y2="114" xlink:href="#未命名的渐变_20"/><linearGradient id="未命名的渐变_20-4" x1="493.07" y1="648.25" x2="1253.48" y2="102.52" xlink:href="#未命名的渐变_20"/><linearGradient id="未命名的渐变_24" x1="328" y1="636.9" x2="1089.42" y2="545.79" gradientUnits="userSpaceOnUse"><stop offset="0" stop-color="#3f75ba"/><stop offset="0.46" stop-color="#00afea"/><stop offset="0.84" stop-color="#8dc21f"/></linearGradient><linearGradient id="未命名的渐变_24-2" x1="325.65" y1="617.27" x2="1087.07" y2="526.16" xlink:href="#未命名的渐变_24"/><linearGradient id="未命名的渐变_24-3" x1="324.48" y1="607.49" x2="1085.9" y2="516.38" xlink:href="#未命名的渐变_24"/><linearGradient id="未命名的渐变_24-4" x1="326.82" y1="627.05" x2="1088.24" y2="535.94" xlink:href="#未命名的渐变_24"/></defs><title>logo_v1</title><path class="cls-1" d="M716.94,782.25a26.13,26.13,0,0,1-10.21,2.14,36.36,36.36,0,0,1-14.63-2.83,31.34,31.34,0,0,1-11-7.79,34.23,34.23,0,0,1-6.84-11.65,42.66,42.66,0,0,1-2.38-14.43A44.18,44.18,0,0,1,674.3,733a35.24,35.24,0,0,1,6.84-11.85,31.3,31.3,0,0,1,11-7.93,35.7,35.7,0,0,1,14.63-2.88,34.48,34.48,0,0,1,10.56,1.64,29.81,29.81,0,0,1,9.22,4.81,26,26,0,0,1,10.07,18.54H721.7a14.89,14.89,0,0,0-5.36-8.92,15.52,15.52,0,0,0-9.61-3,18.11,18.11,0,0,0-8.93,2,16.76,16.76,0,0,0-5.95,5.45,23.83,23.83,0,0,0-3.32,7.79,38.39,38.39,0,0,0-1,9,35.75,35.75,0,0,0,1,8.68,23.41,23.41,0,0,0,3.32,7.59,17,17,0,0,0,5.95,5.4,18.11,18.11,0,0,0,8.93,2q7.72,0,11.95-3.91t4.9-11.36H707.92v-11.6h29.75V782.8h-9.92l-1.59-8A23.26,23.26,0,0,1,716.94,782.25Z" transform="translate(-671.92 -294.95)"/><path class="cls-1" d="M775.75,770.5c2.11,2,5.16,3.08,9.12,3.08a12.56,12.56,0,0,0,7.34-2.14,8.81,8.81,0,0,0,3.77-4.51h12.4q-3,9.23-9.13,13.19a26.81,26.81,0,0,1-14.87,4,29.25,29.25,0,0,1-10.91-1.94,22.61,22.61,0,0,1-8.23-5.5,24.67,24.67,0,0,1-5.21-8.53,31.3,31.3,0,0,1-1.84-10.91,29.85,29.85,0,0,1,1.89-10.71,24.72,24.72,0,0,1,13.64-14.28,26.5,26.5,0,0,1,10.66-2.08,24.32,24.32,0,0,1,11.4,2.53,22.81,22.81,0,0,1,8,6.79,28,28,0,0,1,4.51,9.72,36.47,36.47,0,0,1,1,11.4h-37Q772.58,767.44,775.75,770.5Zm15.92-27c-1.69-1.86-4.25-2.78-7.69-2.78a12.21,12.21,0,0,0-5.6,1.14,10.65,10.65,0,0,0-3.57,2.82,10.24,10.24,0,0,0-1.89,3.58,15.9,15.9,0,0,0-.64,3.37h22.91A16.31,16.31,0,0,0,791.67,743.53Z" transform="translate(-671.92 -294.95)"/><path class="cls-1" d="M883,782.8l-12-48.2h-.2L859,782.8H843.19L824.44,712H840l11.21,48.2h.2l12.3-48.2h14.57l12.1,48.79h.2L902.2,712h15.27l-19,70.81Z" transform="translate(-671.92 -294.95)"/><path class="cls-1" d="M968,782.8v-7.14h-.3a15.83,15.83,0,0,1-6.94,6.44,20.4,20.4,0,0,1-8.73,2,24.63,24.63,0,0,1-9.27-1.49,13.32,13.32,0,0,1-5.7-4.21,16.5,16.5,0,0,1-2.93-6.65,41.43,41.43,0,0,1-.84-8.68V731.52h14.08v29c0,4.24.66,7.39,2,9.48s3.67,3.12,7,3.12c3.84,0,6.61-1.14,8.34-3.42s2.57-6,2.57-11.26V731.52h14.09V782.8Z" transform="translate(-671.92 -294.95)"/><path class="cls-1" d="M1033.7,749.67v12.1h-29.85v-12.1Z" transform="translate(-671.92 -294.95)"/><path class="cls-1" d="M1073.27,712v57.72h34.51V782.8H1057.7V712Z" transform="translate(-671.92 -294.95)"/><path class="cls-1" d="M1126.33,747.29a16.23,16.23,0,0,1,2.48-8.23,16.78,16.78,0,0,1,5.55-5.25A24,24,0,0,1,1142,731a43.24,43.24,0,0,1,8.48-.84,58,58,0,0,1,7.83.54,24.4,24.4,0,0,1,7.24,2.13,14.29,14.29,0,0,1,5.36,4.42,12.37,12.37,0,0,1,2.08,7.48v26.68a52.58,52.58,0,0,0,.4,6.65,12,12,0,0,0,1.38,4.76h-14.28a20.19,20.19,0,0,1-.64-2.43,21.1,21.1,0,0,1-.35-2.53,18.34,18.34,0,0,1-7.93,4.86,32,32,0,0,1-9.33,1.39,25,25,0,0,1-6.84-.9,15.41,15.41,0,0,1-5.55-2.77,12.88,12.88,0,0,1-3.72-4.76,16.16,16.16,0,0,1-1.34-6.85,14.93,14.93,0,0,1,1.54-7.19,12.87,12.87,0,0,1,4-4.51,18.12,18.12,0,0,1,5.56-2.53,61.91,61.91,0,0,1,6.3-1.34q3.17-.5,6.24-.79a38.93,38.93,0,0,0,5.46-.89,9.64,9.64,0,0,0,3.77-1.74,3.83,3.83,0,0,0,1.29-3.32,7.42,7.42,0,0,0-.75-3.62,5.43,5.43,0,0,0-2-2.08,7.68,7.68,0,0,0-2.88-1,22.86,22.86,0,0,0-3.52-.25,10.65,10.65,0,0,0-6.54,1.78c-1.59,1.19-2.52,3.18-2.78,5.95Zm32.53,10.42a6.36,6.36,0,0,1-2.24,1.24,24.49,24.49,0,0,1-2.87.74c-1,.2-2.1.36-3.22.5s-2.25.29-3.38.49a25.48,25.48,0,0,0-3.12.8,9.2,9.2,0,0,0-2.68,1.33,6.42,6.42,0,0,0-1.83,2.14,6.77,6.77,0,0,0-.7,3.27,6.49,6.49,0,0,0,.7,3.17,5.36,5.36,0,0,0,1.88,2,8.08,8.08,0,0,0,2.78,1,17.6,17.6,0,0,0,3.27.3,12.51,12.51,0,0,0,6.45-1.39,9.41,9.41,0,0,0,3.37-3.32,10.69,10.69,0,0,0,1.34-3.92,28.31,28.31,0,0,0,.25-3.18Z" transform="translate(-671.92 -294.95)"/><path class="cls-1" d="M1209.83,712v25.78h.2a15.1,15.1,0,0,1,7-5.8,23.71,23.71,0,0,1,9.17-1.83,19.49,19.49,0,0,1,14.43,6.44,24.72,24.72,0,0,1,4.91,8.38,40,40,0,0,1,0,24.3,24.62,24.62,0,0,1-4.91,8.38,19.56,19.56,0,0,1-14.43,6.45,27,27,0,0,1-10.11-1.79,12.75,12.75,0,0,1-6.74-6h-.2v6.55h-13.39V712Zm22.81,39a16.29,16.29,0,0,0-2.18-5.25,11.37,11.37,0,0,0-3.72-3.62,11.47,11.47,0,0,0-10.76,0,11.24,11.24,0,0,0-3.77,3.62A16.29,16.29,0,0,0,1210,751a27.65,27.65,0,0,0-.69,6.25,27.09,27.09,0,0,0,.69,6.15,16.34,16.34,0,0,0,2.18,5.26,11.33,11.33,0,0,0,3.77,3.62,11.47,11.47,0,0,0,10.76,0,11.47,11.47,0,0,0,3.72-3.62,16.34,16.34,0,0,0,2.18-5.26,27.09,27.09,0,0,0,.7-6.15A27.65,27.65,0,0,0,1232.64,751Z" transform="translate(-671.92 -294.95)"/><path class="cls-2" d="M1019.26,645.47s-25.51-20-59.75-20c-31.53,0-59.75,20-59.75,20V590.85s23.94,19.31,59.75,19.31c37.39,0,59.75-19.31,59.75-19.31Z" transform="translate(-671.92 -294.95)"/><path class="cls-3" d="M1102.4,501.78s-25.52-20-59.76-20c-31.53,0-59.75,20-59.75,20V447.16s23.94,19.31,59.75,19.31c37.39,0,59.76-19.31,59.76-19.31Z" transform="translate(-671.92 -294.95)"/><path class="cls-4" d="M1019.31,358.17s-25.51-20-59.75-20c-31.53,0-59.75,20-59.75,20V303.55s23.94,19.31,59.75,19.31c37.39,0,59.75-19.31,59.75-19.31Z" transform="translate(-671.92 -294.95)"/><path class="cls-5" d="M888.78,364.58s-30.07,12.1-47.19,41.75C825.83,433.64,829,468.08,829,468.08l-47.3-27.31s28.69-11.08,46.6-42.1c18.69-32.38,13.15-61.4,13.15-61.4Z" transform="translate(-671.92 -294.95)"/><path class="cls-6" d="M1137.67,508.32s-30.07,12.11-47.19,41.76c-15.77,27.3-12.56,61.74-12.56,61.74l-47.3-27.31s28.69-11.08,46.6-42.09c18.69-32.38,13.15-61.4,13.15-61.4Z" transform="translate(-671.92 -294.95)"/><path class="cls-7" d="M971.62,508.28s-30.07,12.1-47.19,41.75c-15.76,27.31-12.56,61.75-12.56,61.75l-47.3-27.31s28.69-11.08,46.6-42.09C929.86,510,924.32,481,924.32,481Z" transform="translate(-671.92 -294.95)"/><path class="cls-8" d="M829,481s-4.55,32.1,12.57,61.75c15.76,27.3,47.19,41.75,47.19,41.75l-47.3,27.31s4.75-30.39-13.16-61.41c-18.69-32.38-46.6-42.09-46.6-42.09Z" transform="translate(-671.92 -294.95)"/><path class="cls-9" d="M994.81,481s-4.55,32.1,12.57,61.75c15.76,27.3,47.19,41.75,47.19,41.75l-47.3,27.31s4.75-30.39-13.16-61.41c-18.69-32.38-46.6-42.09-46.6-42.09Z" transform="translate(-671.92 -294.95)"/><circle class="cls-1" cx="370.66" cy="323.46" r="35.91"/><circle class="cls-1" cx="453.74" cy="179.57" r="35.91"/><circle class="cls-1" cx="204.62" cy="323.42" r="35.91"/><circle class="cls-1" cx="287.69" cy="179.52" r="35.91"/><circle class="cls-1" cx="121.76" cy="179.52" r="35.91"/><circle class="cls-1" cx="204.45" cy="35.91" r="35.91"/><circle class="cls-1" cx="370.61" cy="35.91" r="35.91"/></svg>