<svg id="图层_1" data-name="图层 1" xmlns="http://www.w3.org/2000/svg" xmlns:xlink="http://www.w3.org/1999/xlink" viewBox="0 0 403.81 359.38"><defs><style>.cls-1{fill:url(#未命名的渐变_20);}.cls-2{fill:url(#未命名的渐变_20-2);}.cls-3{fill:url(#未命名的渐变_20-3);}.cls-4{fill:url(#未命名的渐变_20-4);}.cls-5{fill:url(#未命名的渐变_24);}.cls-6{fill:url(#未命名的渐变_24-2);}.cls-7{fill:url(#未命名的渐变_24-3);}.cls-8{fill:url(#未命名的渐变_24-4);}.cls-9{fill:#2c298b;}</style><linearGradient id="未命名的渐变_20" x1="637.39" y1="849.34" x2="1397.8" y2="303.61" gradientUnits="userSpaceOnUse"><stop offset="0.09" stop-color="#2c298b"/><stop offset="0.51" stop-color="#00afea"/><stop offset="1" stop-color="#87ba52"/></linearGradient><linearGradient id="未命名的渐变_20-2" x1="597.58" y1="793.88" x2="1358" y2="248.15" xlink:href="#未命名的渐变_20"/><linearGradient id="未命名的渐变_20-3" x1="501.31" y1="659.74" x2="1261.73" y2="114" xlink:href="#未命名的渐变_20"/><linearGradient id="未命名的渐变_20-4" x1="493.07" y1="648.25" x2="1253.48" y2="102.52" xlink:href="#未命名的渐变_20"/><linearGradient id="未命名的渐变_24" x1="328" y1="636.9" x2="1089.42" y2="545.79" gradientUnits="userSpaceOnUse"><stop offset="0" stop-color="#3f75ba"/><stop offset="0.46" stop-color="#00afea"/><stop offset="0.84" stop-color="#8dc21f"/></linearGradient><linearGradient id="未命名的渐变_24-2" x1="325.65" y1="617.27" x2="1087.07" y2="526.16" xlink:href="#未命名的渐变_24"/><linearGradient id="未命名的渐变_24-3" x1="324.48" y1="607.49" x2="1085.9" y2="516.38" xlink:href="#未命名的渐变_24"/><linearGradient id="未命名的渐变_24-4" x1="326.82" y1="627.05" x2="1088.24" y2="535.94" xlink:href="#未命名的渐变_24"/></defs><title>logo_v2</title><path class="cls-1" d="M1019.26,645.47s-25.51-20-59.75-20c-31.53,0-59.75,20-59.75,20V590.85s23.94,19.31,59.75,19.31c37.39,0,59.75-19.31,59.75-19.31Z" transform="translate(-757.76 -294.95)"/><path class="cls-2" d="M1102.4,501.78s-25.52-20-59.76-20c-31.53,0-59.75,20-59.75,20V447.16s23.94,19.31,59.75,19.31c37.39,0,59.76-19.31,59.76-19.31Z" transform="translate(-757.76 -294.95)"/><path class="cls-3" d="M1019.31,358.17s-25.51-20-59.75-20c-31.53,0-59.75,20-59.75,20V303.55s23.94,19.31,59.75,19.31c37.39,0,59.75-19.31,59.75-19.31Z" transform="translate(-757.76 -294.95)"/><path class="cls-4" d="M888.78,364.58s-30.07,12.1-47.19,41.75C825.83,433.64,829,468.08,829,468.08l-47.3-27.31s28.69-11.08,46.6-42.1c18.69-32.38,13.15-61.4,13.15-61.4Z" transform="translate(-757.76 -294.95)"/><path class="cls-5" d="M1137.67,508.32s-30.07,12.11-47.19,41.76c-15.77,27.3-12.56,61.74-12.56,61.74l-47.3-27.31s28.69-11.08,46.6-42.09c18.69-32.38,13.15-61.4,13.15-61.4Z" transform="translate(-757.76 -294.95)"/><path class="cls-6" d="M971.62,508.28s-30.07,12.1-47.19,41.75c-15.76,27.31-12.56,61.75-12.56,61.75l-47.3-27.31s28.69-11.08,46.6-42.09C929.86,510,924.32,481,924.32,481Z" transform="translate(-757.76 -294.95)"/><path class="cls-7" d="M829,481s-4.55,32.1,12.57,61.75c15.76,27.3,47.19,41.75,47.19,41.75l-47.3,27.31s4.75-30.39-13.16-61.41c-18.69-32.38-46.6-42.09-46.6-42.09Z" transform="translate(-757.76 -294.95)"/><path class="cls-8" d="M994.81,481s-4.55,32.1,12.57,61.75c15.76,27.3,47.19,41.75,47.19,41.75l-47.3,27.31s4.75-30.39-13.16-61.41c-18.69-32.38-46.6-42.09-46.6-42.09Z" transform="translate(-757.76 -294.95)"/><circle class="cls-9" cx="284.82" cy="323.46" r="35.91"/><circle class="cls-9" cx="367.89" cy="179.57" r="35.91"/><circle class="cls-9" cx="118.77" cy="323.42" r="35.91"/><circle class="cls-9" cx="201.85" cy="179.52" r="35.91"/><circle class="cls-9" cx="35.92" cy="179.52" r="35.91"/><circle class="cls-9" cx="118.61" cy="35.91" r="35.91"/><circle class="cls-9" cx="284.76" cy="35.91" r="35.91"/></svg>